<?xml version="1.0" encoding="UTF-8"?>
<svg xmlns="http://www.w3.org/2000/svg" width="512" height="512" viewBox="0 0 512 512" role="img" aria-label="AST logo">
  <g transform="matrix(0.05069307 0.00000000 0.00000000 -0.05798414 -61.84554455 601.29558324)" fill-rule="evenodd">
    <path d="M3740 10363 c-536 -60 -999 -254 -1425 -596 -602 -483 -993 -1190
-1081 -1952 -24 -209 -16 -2555 10 -2705 129 -769 475 -1344 1081 -1800 417
-314 795 -484 1285 -578 l135 -26 1812 -5 1811 -6 89 -60 c164 -113 877 -607
1008 -700 478 -338 523 -363 700 -385 338 -42 674 203 751 546 21 95 17 201
-21 544 -14 129 -28 283 -32 343 -7 124 -5 127 83 178 214 122 532 404 719
639 394 492 603 1022 645 1635 16 217 8 2274 -9 2395 -92 685 -375 1265 -850
1741 -422 423 -881 662 -1482 771 l-124 23 -2535 1 c-1394 0 -2551 -1 -2570
-3z" fill="#087dff"/>
    <path d="M3730 9985 c-566 -75 -1027 -308 -1430 -722 -361 -370 -584 -810
-674 -1329 -31 -177 -35 -377 -31 -1490 4 -1058 5 -1117 25 -1252 32 -218 97
-447 175 -617 20 -44 44 -96 53 -115 90 -194 306 -487 488 -660 321 -306 765
-558 1163 -661 263 -68 108 -63 2121 -69 l1825 -5 46 -25 c25 -14 146 -95 268
-180 374 -261 642 -447 724 -502 42 -29 103 -71 135 -94 68 -48 284 -196 397
-271 171 -114 324 -110 455 13 107 100 115 179 62 644 -60 525 -67 623 -53
658 11 25 34 43 120 89 247 132 410 252 591 433 381 382 631 878 717 1425 28
172 27 2527 0 2685 -124 712 -531 1325 -1128 1701 -300 189 -563 284 -934 338
-138 21 -169 21 -2580 20 -1900 -1 -2461 -4 -2535 -14z m5117 -298 c396 -70
700 -205 983 -435 433 -352 717 -853 795 -1403 22 -156 22 -2414 0 -2583 -91
-696 -548 -1331 -1191 -1654 -127 -64 -193 -145 -219 -270 -13 -62 -11 -92 41
-570 62 -575 61 -555 34 -582 -44 -44 40 -97 -1272 816 -364 254 -392 272
-480 298 l-83 26 -1780 3 c-1754 4 -1782 5 -1900 25 -213 37 -406 102 -616
207 -742 370 -1194 1001 -1268 1769 -15 149 -15 2263 0 2412 101 1038 932
1881 1926 1954 59 4 1195 7 2523 5 2192 -1 2424 -3 2507 -18z M6135 8249
c-490 -71 -828 -349 -942 -774 -34 -130 -39 -387 -10 -525 82 -381 304 -595
812 -781 94 -34 230 -84 303 -111 320 -117 418 -207 410 -378 -4 -94 -38 -158
-111 -207 -240 -161 -629 -99 -942 152 -123 99 -151 93 -277 -52 -51 -58 -135
-153 -186 -212 -133 -152 -138 -194 -34 -293 323 -306 834 -453 1342 -383 613
83 990 458 1017 1010 18 366 -110 653 -369 832 -132 91 -255 147 -628 283
-350 128 -429 166 -498 245 -144 164 -60 383 172 450 90 26 255 17 365 -20
107 -36 236 -120 361 -232 34 -32 81 -39 122 -19 18 9 125 109 238 221 l205
204 0 55 c0 53 -2 56 -60 118 -204 215 -501 365 -818 412 -113 17 -370 20
-472 5z M3166 8228 c-3 -7 -106 -789 -231 -1738 -125 -949 -229 -1733 -231
-1742 -5 -17 22 -18 469 -18 l475 0 5 43 c4 23 16 165 29 315 l22 272 162 0
161 0 6 -57 c3 -32 14 -174 23 -315 l18 -258 469 0 470 0 -6 38 c-4 20 -119
795 -257 1722 -138 927 -253 1700 -256 1718 l-6 32 -659 0 c-519 0 -660 -3
-663 -12z m729 -1133 c21 -255 70 -763 101 -1052 l7 -63 -154 0 -155 0 8 103
c17 215 76 710 156 1312 8 62 6 75 37 -300z M7724 8230 c-12 -4 -31 -21 -43
-36 -20 -26 -21 -35 -21 -350 0 -220 4 -331 11 -348 24 -53 48 -56 403 -56
l326 0 0 -1329 c0 -1293 1 -1329 19 -1352 l19 -24 354 -3 355 -3 26 27 27 27
0 1328 0 1329 335 0 c279 0 341 3 365 15 60 31 60 29 60 383 0 358 -2 370 -63
392 -37 12 -2142 13 -2173 0z" fill="#fff"/>
  </g>
</svg>
